<svg width="24" height="24" viewBox="0 0 24 24" fill="none" xmlns="http://www.w3.org/2000/svg">
<rect width="24" height="24" rx="12" fill="white"/>
<path fill-rule="evenodd" clip-rule="evenodd" d="M6.72453 6.56637C6.74687 6.39601 6.81311 6.23269 6.91796 6.08943C7.02281 5.94617 7.16339 5.82693 7.32849 5.7412C7.49359 5.65547 7.67865 5.60562 7.86894 5.59562C8.05922 5.58563 8.24947 5.61576 8.42453 5.68362C9.30953 6.02412 11.2929 6.83337 13.8095 8.14062C16.327 9.44862 18.0979 10.5909 18.867 11.1091C19.5237 11.5524 19.5254 12.4314 18.8679 12.8761C18.1062 13.3914 16.357 14.5186 13.8095 15.8431C11.2595 17.1676 9.29953 17.9671 8.42286 18.3031C7.66786 18.5934 6.82286 18.1531 6.72453 17.4204C6.60953 16.5639 6.39453 14.6191 6.39453 11.9926C6.39453 9.36762 6.6087 7.42362 6.72453 6.56637Z" fill="#2974F0"/>
</svg>
